<svg xmlns="http://www.w3.org/2000/svg" xmlns:xlink="http://www.w3.org/1999/xlink" viewBox="0,0,256,256" width="24px" height="24px" fill-rule="nonzero"><g fill="#ffffff" fill-rule="nonzero" stroke="none" stroke-width="1" stroke-linecap="butt" stroke-linejoin="miter" stroke-miterlimit="10" stroke-dasharray="" stroke-dashoffset="0" font-family="none" font-weight="none" font-size="none" text-anchor="none" style="mix-blend-mode: normal"><g transform="scale(10.66667,10.66667)"><path d="M11.01953,1c-0.21527,-0.00452 -0.42624,0.06055 -0.60156,0.18555c0,0 -4.30172,3.07503 -6.16016,4.40234c-0.01027,0.00732 -0.01718,0.01795 -0.02734,0.02539l-2.82422,2.08203c-0.29227,0.21038 -0.44887,0.56164 -0.40999,0.91965c0.03887,0.35801 0.26722,0.66747 0.59783,0.81021c0.33061,0.14274 0.71244,0.09672 0.99966,-0.12049l0.40625,-0.29883v1.99414v5v0.92969c0,0.669 0.33363,1.29306 0.89063,1.66406c1.276,0.851 3.58452,2.38936 4.60352,3.06836c0.33,0.219 0.71823,0.33789 1.11523,0.33789h10.40039c0.528,0 1.0352,-0.20903 1.4082,-0.58203c0.373,-0.373 0.58108,-0.8802 0.58008,-1.4082c-0.001,-2.853 -0.00095,-7.99758 -0.00195,-10.14258c0,-0.619 -0.28639,-1.20403 -0.77539,-1.58203c-1.167,-0.904 -3.24023,-2.50781 -3.24023,-2.50781v0.02734c-0.08008,-0.07144 -0.14803,-0.15372 -0.23633,-0.2168c-1.85848,-1.32663 -6.16211,-4.40234 -6.16211,-4.40234c-0.16446,-0.11723 -0.36057,-0.18191 -0.5625,-0.18555zM11,3.23047c0.68168,0.48702 3.89814,2.78432 5.58203,3.98633c0.26194,0.18782 0.41797,0.4891 0.41797,0.8125v7.9707c0,0.26459 -0.10527,0.51934 -0.29297,0.70703c-0.1877,0.1877 -0.44244,0.29297 -0.70703,0.29297h-3v-6.01953c0,-0.26 -0.10311,-0.50936 -0.28711,-0.69336c-0.184,-0.184 -0.43336,-0.28711 -0.69336,-0.28711h-2.03906c-0.26,0 -0.50936,0.10311 -0.69336,0.28711c-0.184,0.184 -0.28711,0.43336 -0.28711,0.69336v6.01953h-3c-0.26459,0 -0.51934,-0.10527 -0.70703,-0.29297c-0.1877,-0.1877 -0.29297,-0.44244 -0.29297,-0.70703v-7.9707c0,-0.30424 0.14021,-0.58441 0.375,-0.77344l0.14844,-0.10937c0.02217,-0.01604 0.04367,-0.03298 0.06445,-0.05078c0.00459,-0.00387 0.00915,-0.00777 0.01367,-0.01172c1.72034,-1.22861 4.73881,-3.38225 5.39844,-3.85352z"></path></g></g></svg>