<?xml version="1.0" encoding="UTF-8"?>
<svg xmlns="http://www.w3.org/2000/svg" xmlns:xlink="http://www.w3.org/1999/xlink" width="40px" height="40px" viewBox="0 0 40 40" version="1.1">
<g id="surface1">
<path style=" stroke:none;fill-rule:nonzero;fill:rgb(3.921569%,40.000001%,76.078433%);fill-opacity:1;" d="M 34.082031 34.082031 L 28.15625 34.082031 L 28.15625 24.800781 C 28.15625 22.585938 28.117188 19.738281 25.074219 19.738281 C 21.984375 19.738281 21.511719 22.148438 21.511719 24.640625 L 21.511719 34.082031 L 15.585938 34.082031 L 15.585938 14.996094 L 21.277344 14.996094 L 21.277344 17.601562 L 21.355469 17.601562 C 22.515625 15.621094 24.671875 14.433594 26.96875 14.519531 C 32.976562 14.519531 34.085938 18.472656 34.085938 23.613281 Z M 8.898438 12.386719 C 7 12.386719 5.460938 10.847656 5.460938 8.945312 C 5.457031 7.046875 7 5.507812 8.898438 5.507812 C 10.796875 5.507812 12.335938 7.046875 12.339844 8.945312 C 12.339844 10.84375 10.796875 12.386719 8.898438 12.386719 M 11.863281 34.082031 L 5.929688 34.082031 L 5.929688 14.996094 L 11.863281 14.996094 Z M 37.035156 0.00390625 L 2.953125 0.00390625 C 1.339844 -0.015625 0.0195312 1.273438 0 2.886719 L 0 37.113281 C 0.0195312 38.726562 1.339844 40.015625 2.953125 40 L 37.035156 40 C 38.652344 40.019531 39.976562 38.726562 40 37.113281 L 40 2.882812 C 39.976562 1.269531 38.652344 -0.0195312 37.035156 0 "/>
</g>
</svg>
